<svg xmlns="http://www.w3.org/2000/svg" viewBox="0 0 512 512"><path d="M188.8 255.93A67.2 67.2 0 10256 188.73a67.38 67.38 0 00-67.2 67.2z"/><path d="M476.75 217.79h-98.43a110.27 110.27 0 01-21.83 131.13l-49.18 85.2a180.46 180.46 0 00148.55-118.95 178.28 178.28 0 0020.89-97.38zM256 346.19a90.28 90.28 0 01-78.16-45.33L79.37 134.72A179.57 179.57 0 0075.51 256a180.52 180.52 0 00130.79 173.53L255.48 340c.18.06.35.12.52.19z"/><path d="M256 75.51a180.42 180.42 0 00-156.88 90.58l49.54 85.75A90.28 90.28 0 01256 165.79h148.5A180.44 180.44 0 00256 75.51z"/></svg>
