<svg width="304" height="496" viewBox="0 0 304 496" fill="none" xmlns="http://www.w3.org/2000/svg">
    <path d="M151.741 0C151.754 0.0437414 155.293 11.9389 156.712 15.9414C181.047 84.543 212.172 134.87 239.489 179.037C274.609 235.824 303.436 282.432 303.436 344.614C303.436 384.763 287.451 423.269 258.999 451.659C230.746 479.85 191.674 496 151.718 496C111.482 496 72.8893 480.051 44.4375 451.659C15.9849 423.269 2.44815e-05 384.763 0 344.614C0 282.432 28.8259 235.824 63.9463 179.037C91.2637 134.87 122.389 84.5431 146.724 15.9414C148.145 11.9316 151.695 0 151.695 0C151.696 0.00161803 151.704 0.0274261 151.718 0.0751953C151.732 0.0257804 151.741 0 151.741 0ZM220.769 404.58C210.563 404.58 202.29 414.813 202.29 427.436C202.29 440.058 210.563 450.29 220.769 450.29C230.974 450.29 239.247 440.058 239.247 427.436C239.247 414.813 230.974 404.58 220.769 404.58Z" fill="#F7F8F8"/>
</svg>
