<svg xmlns="http://www.w3.org/2000/svg" width="801" height="801"><g fill="none" fill-rule="evenodd"><path fill="none" d="M0 0h801v801H0z"/><g transform="translate(143 82)"><path stroke="#FFF" stroke-linecap="round" stroke-width="44" d="M374 187H211.473C195.748 187 183 174.3 183 158.635V87.722C183 39.274 222.424 0 271.055 0c48.632 0 88.056 39.274 88.056 87.722M468 672H73.784C33.034 672 0 638.98 0 598.248V175.752C0 135.02 33.034 102 73.784 102"/><path fill="#FFF" d="M336.53 78.954c19.639.532 34.365.88 44.18 1.046 9.813.165 15.78.165 17.899 0v44h-32.053c-16.548 0-29.97-13.4-30-29.947l-.027-15.099Z"/><path stroke="#FFF" stroke-width="44" d="M375 102h93.423C509.058 102 542 135.02 542 175.752v422.496C542 638.98 509.058 672 468.423 672"/><rect width="383" height="55" x="80" y="277" fill="#FFF" rx="26"/><rect width="383" height="55" x="80" y="398" fill="#FFF" rx="26"/><rect width="234" height="55" x="79" y="519" fill="#FFF" rx="26"/></g></g></svg>