<svg xmlns="http://www.w3.org/2000/svg" width="801" height="801"><g fill="none" fill-rule="evenodd"><path d="M0 0h801v801H0z"/><g transform="translate(143 81)"><path stroke="#FFF" stroke-linecap="round" stroke-width="44" d="M355.62 177.817H201.08c-14.952 0-27.074-12.076-27.074-26.972v-67.43C174.006 37.344 211.493 0 257.734 0c46.242 0 83.728 37.345 83.728 83.414M445 639H70.158C31.41 639 0 607.602 0 568.87V167.12c0-38.731 31.41-70.13 70.158-70.13"/><path fill="#FFF" fill-rule="nonzero" d="M320 75c18.666.508 32.661.84 41.989.998 9.326.158 14.997.158 17.011 0V118h-30.463c-15.727 0-28.483-12.791-28.511-28.587L320 75Z"/><path stroke="#FFF" stroke-width="44" d="M356 97h88.948C483.636 97 515 128.398 515 167.13v401.74c0 38.732-31.364 70.13-70.052 70.13"/><rect width="364" height="52" x="76" y="264" fill="#FFF" fill-rule="nonzero" rx="26"/><rect width="364" height="52" x="76" y="379" fill="#FFF" fill-rule="nonzero" rx="26"/><rect width="223" height="52" x="75" y="494" fill="#FFF" fill-rule="nonzero" rx="26"/></g></g></svg>