<svg width="473" height="378" viewBox="0 0 473 378" fill="none" xmlns="http://www.w3.org/2000/svg">
    <g clip-path="url(#clip0_17_314)">
        <path d="M290.304 0.885614C277.74 -2.73196 264.659 4.57702 261.037 17.1278L166.437 347.878C162.816 360.429 170.132 373.496 182.696 377.114C195.261 380.731 208.342 373.422 211.963 360.872L306.563 30.1215C310.185 17.5708 302.868 4.50319 290.304 0.885614ZM349.872 89.5532C340.634 98.7817 340.634 113.769 349.872 122.997L415.871 189L349.798 255.002C340.56 264.231 340.56 279.218 349.798 288.446C359.037 297.675 374.04 297.675 383.278 288.446L466.053 205.759C475.291 196.53 475.291 181.543 466.053 172.315L383.278 89.627C374.04 80.3985 359.037 80.3985 349.798 89.627L349.872 89.5532ZM123.202 89.5532C113.964 80.3247 98.9607 80.3247 89.7224 89.5532L6.94739 172.241C-2.29089 181.469 -2.29089 196.456 6.94739 205.685L89.7224 288.372C98.9607 297.601 113.964 297.601 123.202 288.372C132.44 279.144 132.44 264.157 123.202 254.928L57.1297 189L123.202 122.997C132.44 113.769 132.44 98.7817 123.202 89.5532Z" fill="#F7F8F8"/>
    </g>
    <defs>
        <clipPath id="clip0_17_314">
            <rect width="473" height="378" fill="white"/>
        </clipPath>
    </defs>
</svg>
