<svg width="485" height="468" viewBox="0 0 485 468" fill="none" xmlns="http://www.w3.org/2000/svg">
    <path d="M142.618 182.318C158.214 156.789 195.291 156.789 210.887 182.318L281.444 297.815L312.595 246.858C328.194 221.343 365.253 221.344 380.851 246.858L478.315 406.29C494.609 432.944 475.427 467.153 444.187 467.153H249.259C247.765 467.153 246.298 467.074 244.861 466.922H40.0629C8.82866 466.922 -10.3549 432.724 5.92817 406.069L142.618 182.318ZM393.337 0C431.577 0 462.577 30.9995 462.577 69.2393C462.577 107.479 431.577 138.479 393.337 138.479C355.098 138.478 324.098 107.479 324.098 69.2393C324.098 30.9996 355.098 0.00018557 393.337 0Z" fill="#F7F8F8"/>
</svg>
