<svg width="384" height="384" viewBox="0 0 384 384" fill="none" xmlns="http://www.w3.org/2000/svg">
    <path d="M120.003 125.297C134.461 119.896 149.91 117.672 165.303 118.776C180.696 119.88 195.67 124.285 209.21 131.694C222.75 139.102 234.538 149.338 243.777 161.706C251.213 171.662 249.171 185.761 239.215 193.197C229.415 200.517 215.6 198.653 208.077 189.097L207.724 188.636L207.215 187.964C201.916 181.065 195.239 175.345 187.611 171.171C179.736 166.863 171.03 164.302 162.083 163.66C153.136 163.019 144.156 164.311 135.75 167.451C127.344 170.591 119.709 175.506 113.363 181.864L113.36 181.867L62.4865 232.812C51.1413 244.626 44.8598 260.429 45.0022 276.836C45.1451 293.288 51.7354 309.02 63.343 320.645C74.9497 332.268 90.6443 338.855 107.044 338.998C123.402 339.14 139.169 332.859 150.965 321.495L179.878 292.54C188.659 283.747 202.904 283.738 211.697 292.518C220.49 301.298 220.501 315.544 211.721 324.337L182.62 353.48C182.528 353.572 182.436 353.664 182.342 353.754C162.053 373.378 134.872 384.242 106.653 383.996C78.4333 383.751 51.4453 372.415 31.5002 352.442C11.5562 332.469 0.249141 305.457 0.00412209 277.226C-0.240747 248.995 10.5966 221.791 30.1906 201.475L30.4641 201.195L81.5168 150.069C92.4215 139.146 105.547 130.697 120.003 125.297ZM277.035 0.00406487C305.311 0.249274 332.369 11.5648 352.379 31.5295C372.39 51.4958 383.75 78.5165 383.996 106.774C384.242 135.031 373.354 162.244 353.694 182.555C353.603 182.649 353.511 182.742 353.419 182.834L302.178 233.96C291.237 244.879 278.074 253.32 263.583 258.713C249.091 264.107 233.608 266.328 218.183 265.226C202.757 264.123 187.747 259.724 174.171 252.323C161.019 245.154 149.51 235.329 140.374 223.479L139.497 222.325L139.155 221.857C132.109 211.944 134.217 198.164 144.004 190.826C153.791 183.489 167.609 185.329 175.149 194.872L175.503 195.333L176.013 196.004C181.333 202.905 188.039 208.631 195.709 212.813C203.627 217.129 212.386 219.697 221.39 220.34C230.394 220.983 239.431 219.686 247.887 216.539C256.342 213.392 264.017 208.469 270.391 202.107L270.394 202.104L321.454 151.158C332.847 139.338 339.141 123.546 338.998 107.165C338.855 90.7392 332.252 75.0156 320.595 63.3849C308.936 51.7526 293.154 45.1453 276.646 45.0021C260.173 44.8593 244.31 51.1645 232.458 62.547L203.237 91.5353L202.819 91.9386C193.97 100.282 180.032 100.091 171.417 91.4064C162.666 82.5842 162.723 68.3383 171.545 59.5871L200.923 30.4455C201 30.3691 201.078 30.2932 201.156 30.2179C221.51 10.6039 248.76 -0.241005 277.035 0.00406487Z" fill="#F7F8F8"/>
</svg>
