<svg width="540" height="540" viewBox="0 0 540 540" fill="none" xmlns="http://www.w3.org/2000/svg">
    <path d="M90 405V321.75C90 303.111 74.8897 288 56.25 288H45V252H56.25C74.8897 252 90 236.889 90 218.25V135C90 97.7209 120.221 67.5 157.5 67.5H180V112.5H157.5C145.074 112.5 135 122.574 135 135V227.25C135 247.181 122.042 264.087 104.09 270C122.042 275.913 135 292.819 135 312.75V405C135 417.427 145.074 427.5 157.5 427.5H180V472.5H157.5C120.221 472.5 90 442.28 90 405ZM450 321.75V405C450 442.28 419.78 472.5 382.5 472.5H360V427.5H382.5C394.927 427.5 405 417.427 405 405V312.75C405 292.819 417.958 275.913 435.911 270C417.958 264.087 405 247.181 405 227.25V135C405 122.574 394.927 112.5 382.5 112.5H360V67.5H382.5C419.78 67.5 450 97.7209 450 135V218.25C450 236.889 465.111 252 483.75 252H495V288H483.75C465.111 288 450 303.111 450 321.75Z" fill="#F7F8F8"/>
</svg>
