<svg xmlns="http://www.w3.org/2000/svg" width="2500" height="2012" viewBox="0 0 50.497 40.648"><path fill="#E99315" d="M50.448 12.132c.217 2.814-.259 6.186-2.117 6.351-3.033.271-1.451-3.07-1.411-5.081.111-5.829-4.865-9.879-9.739-9.879-1.381 0-4.588.936-4.094-1.976.222-1.284 1.31-1.266 2.399-1.411 8.197-1.093 14.386 4.546 14.962 11.996z"/><path fill="#D52A2C" d="M37.04 18.907c3.524 1.928 7.758 2.888 7.056 8.61-.168 1.371-.998 3.203-1.834 4.373-5.957 8.339-23.924 11.844-35.144 5.506C3.355 35.269-.539 32.159.062 25.962c.517-5.333 4.103-9.464 7.622-12.983 3.357-3.359 6.897-5.987 11.714-7.198 5.226-1.314 6.771 3.043 5.363 7.339 3.027-.203 9.442-3.582 12.279-.282 1.25 1.454.771 4.058 0 6.069zm-3.811 13.548c1.129-1.28 2.264-3.231 2.257-5.503-.015-7.014-8.851-9.605-15.806-9.033-3.804.312-6.363 1.115-9.033 2.682-2.179 1.279-4.729 3.36-5.363 6.491-1.427 7.041 6.231 10.35 11.855 10.726 6.498.437 13.002-1.857 16.09-5.363z"/><path fill="#E99315" d="M43.531 12.132c.296 2.149-.319 4.011-1.552 4.093-2.056.137-1.287-1.408-1.412-3.246-.078-1.132-1.016-2.439-1.835-2.823-1.606-.752-4.093.548-4.093-1.693 0-1.664 1.443-1.491 2.259-1.553 3.574-.272 6.216 2.191 6.633 5.222z"/><path d="M27.019 26.246c3.007 9.088-12.66 13.314-15.525 5.504-1.917-5.223 2.686-9.377 7.48-9.879 4.093-.429 7.144 1.658 8.045 4.375zm-7.198 1.553c.638 1.104 2.105.311 1.976-.564-.154-1.013-1.989-.863-1.976.564zm-2.541 4.799c2.634-.627 2.988-5.588-.988-4.658-3.34.78-2.694 5.533.988 4.658z"/></svg>