<svg class="svg-icon" style="width: 1em; height: 1em;vertical-align: middle;fill: currentColor;overflow: hidden;" viewBox="0 0 1024 1024" version="1.1" xmlns="http://www.w3.org/2000/svg"><path d="M926.293333 865.706667l-768-768a42.666667 42.666667 0 0 0-60.586666 60.586666L170.666667 230.826667V810.666667a128 128 0 0 0 128 128h426.666666a128 128 0 0 0 101.973334-51.2l38.4 38.826666a42.666667 42.666667 0 0 0 60.586666 0 42.666667 42.666667 0 0 0 0-60.586666zM725.333333 853.333333H298.666667a42.666667 42.666667 0 0 1-42.666667-42.666666V316.16l509.013333 509.013333A42.666667 42.666667 0 0 1 725.333333 853.333333zM369.493333 170.666667H512v128a128 128 0 0 0 128 128h128v142.506666a42.666667 42.666667 0 1 0 85.333333 0V384v-2.56a55.893333 55.893333 0 0 0-2.56-11.52v-3.84a45.653333 45.653333 0 0 0-8.106666-11.946667l-256-256a45.653333 45.653333 0 0 0-11.946667-8.106666h-3.84L557.226667 85.333333h-187.733334a42.666667 42.666667 0 0 0 0 85.333334zM597.333333 230.826667L707.84 341.333333H640a42.666667 42.666667 0 0 1-42.666667-42.666666z"  /></svg>