<svg class="svg-icon" style="width: 1em; height: 1em;vertical-align: middle;fill: currentColor;overflow: hidden;" viewBox="0 0 1024 1024" version="1.1" xmlns="http://www.w3.org/2000/svg"><path d="M926.293333 865.706667l-39.68-39.68-3.84-4.266667-2.56-2.986667-21.333333-21.333333-5.546667-2.986667-221.013333-221.866666-3.84-3.413334-136.533333-136.96-4.266667-5.546666-329.386667-328.96a42.666667 42.666667 0 0 0-60.586666 60.586666l42.666666 42.666667A128 128 0 0 0 128 256v512a128 128 0 0 0 128 128h512a123.733333 123.733333 0 0 0 54.186667-13.226667h2.133333l40.533333 42.666667a42.666667 42.666667 0 0 0 60.586667 0 42.666667 42.666667 0 0 0 0.853333-59.733333zM213.333333 273.493333l138.24 138.24a121.173333 121.173333 0 0 0-28.586666 20.48L213.333333 542.293333zM256 810.666667a42.666667 42.666667 0 0 1-42.666667-42.666667v-104.96l170.666667-170.666667a34.56 34.56 0 0 1 46.933333 0L750.506667 810.666667zM412.16 213.333333H768a42.666667 42.666667 0 0 1 42.666667 42.666667v253.44a42.666667 42.666667 0 1 0-60.586667 60.586667l74.24 74.24a42.666667 42.666667 0 0 0 60.586667 0 42.666667 42.666667 0 0 0 12.373333-30.72V256a128 128 0 0 0-128-128H412.16a42.666667 42.666667 0 0 0 0 85.333333z"  /></svg>