<svg version="1.0" xmlns="http://www.w3.org/2000/svg"
 width="222.000000pt" height="222.000000pt" viewBox="0 0 222.000000 222.000000"
 preserveAspectRatio="xMidYMid meet">

<g transform="translate(0.000000,222.000000) scale(0.100000,-0.100000)"
fill="#000000" stroke="none">
<path d="M1169 1936 c-40 -21 -525 -412 -543 -438 -45 -64 18 -159 97 -144 21
4 100 61 227 162 107 86 209 167 227 181 l32 24 225 -180 c124 -99 237 -183
251 -187 31 -8 81 12 100 40 15 21 20 72 9 100 -8 21 -523 432 -558 446 -34
13 -36 13 -67 -4z"/>
<path d="M658 933 c-47 -30 -61 -84 -32 -131 20 -34 505 -422 549 -440 27 -11
37 -11 66 1 42 18 544 419 553 442 11 29 7 80 -9 101 -19 28 -69 48 -100 40
-14 -4 -126 -87 -250 -186 -148 -119 -230 -178 -238 -173 -7 4 -104 82 -216
172 -112 90 -215 170 -230 177 -34 18 -60 17 -93 -3z"/>
</g>
</svg>
