<svg version="1.0" xmlns="http://www.w3.org/2000/svg"
 width="438.000000pt" height="408.000000pt" viewBox="0 0 438.000000 408.000000"
 preserveAspectRatio="xMidYMid meet">

<g transform="translate(0.000000,408.000000) scale(0.100000,-0.100000)"
fill="#000000" stroke="none">
<path d="M2069 3670 c-265 -25 -531 -121 -758 -273 -135 -90 -321 -276 -413
-413 -376 -557 -373 -1265 7 -1818 92 -134 270 -311 405 -402 239 -162 453
-237 765 -269 120 -12 159 -12 275 0 222 22 359 58 544 142 246 111 459 291
631 534 120 169 208 376 256 605 33 156 34 450 1 604 -107 512 -431 933 -877
1137 -272 125 -566 179 -836 153z m243 -331 c103 -66 209 -240 283 -464 19
-56 55 -181 55 -189 0 -3 -196 -6 -435 -6 -319 0 -435 3 -435 11 0 18 38 146
72 239 80 221 191 380 302 431 53 25 93 19 158 -22z m-690 -192 c-49 -102 -86
-210 -122 -352 l-28 -110 -207 -3 c-113 -1 -204 1 -202 5 3 5 26 42 51 83 67
108 176 230 277 311 97 77 262 175 267 159 2 -6 -14 -48 -36 -93z m1406 -59
c51 -40 125 -110 164 -156 66 -77 168 -225 168 -244 0 -5 -91 -7 -202 -6
l-202 3 -27 103 c-31 120 -79 258 -126 361 -18 40 -33 80 -33 87 0 22 153 -66
258 -148z m-1605 -1005 l-2 -298 -234 -3 -235 -2 -10 42 c-24 98 -33 248 -22
362 6 61 16 130 22 154 l10 42 237 0 236 0 -2 -297z m1281 281 c8 -20 8 -532
0 -562 l-6 -22 -481 2 -481 3 -8 30 c-10 36 -12 463 -2 523 l7 42 482 0 c431
0 484 -2 489 -16z m785 -41 c31 -156 30 -362 -2 -488 l-13 -50 -234 0 -233 0
-1 298 -1 297 236 0 236 0 12 -57z m-2022 -855 c5 -7 22 -60 37 -118 31 -117
83 -262 128 -358 16 -35 27 -66 24 -70 -4 -3 -40 10 -80 30 -92 46 -251 173
-338 270 -65 73 -168 224 -168 246 0 18 384 17 397 0z m1178 2 c3 -6 2 -25 -4
-43 -96 -296 -109 -327 -188 -452 -57 -89 -75 -109 -145 -156 -73 -50 -117
-52 -179 -8 -94 67 -146 133 -217 275 -59 118 -140 363 -126 385 8 13 851 12
859 -1z m710 1 c9 -16 -98 -173 -177 -259 -94 -103 -212 -198 -321 -257 -101
-54 -104 -51 -51 55 40 79 105 271 130 382 9 40 22 76 28 80 16 11 384 10 391
-1z"/>
</g>
</svg>
