<svg version="1.0" xmlns="http://www.w3.org/2000/svg"
 width="382.000000pt" height="388.000000pt" viewBox="0 0 382.000000 388.000000"
 preserveAspectRatio="xMidYMid meet">

<g transform="translate(0.000000,388.000000) scale(0.100000,-0.100000)"
fill="#000000" stroke="none">
<path d="M2850 3569 c-250 -19 -501 -107 -728 -255 -119 -78 -305 -267 -411
-417 l-83 -117 -281 0 c-311 0 -381 -8 -475 -52 -103 -48 -157 -114 -325 -395
-188 -316 -207 -353 -207 -402 0 -58 28 -110 72 -132 35 -18 64 -19 445 -19
376 0 414 -2 480 -20 175 -48 319 -185 374 -355 9 -29 14 -160 18 -480 l6
-440 23 -33 c26 -36 88 -72 124 -72 36 0 105 36 368 193 344 204 390 243 449
381 l26 61 3 327 3 328 32 23 c188 138 246 185 330 271 231 233 378 535 422
871 29 217 12 522 -33 612 -38 73 -82 96 -217 112 -144 17 -281 20 -415 10z
m-7 -566 c46 -19 113 -93 127 -142 56 -203 -117 -378 -314 -316 -226 71 -223
408 4 469 60 16 122 12 183 -11z"/>
<path d="M870 1565 c-85 -19 -197 -77 -254 -132 -87 -83 -162 -214 -204 -358
-35 -118 -63 -293 -69 -431 -7 -152 4 -189 68 -231 64 -42 155 -43 404 -2 339
55 533 158 639 338 154 263 64 609 -195 753 -121 68 -265 91 -389 63z m161
-406 c65 -28 99 -83 99 -158 0 -118 -67 -176 -242 -211 -46 -9 -63 -8 -91 4
-50 20 -61 46 -53 123 21 206 139 305 287 242z"/>
</g>
</svg>
