<svg width="1024px" height="1024px" viewBox="0 0 1024 1024" version="1.1" xmlns="http://www.w3.org/2000/svg" xmlns:xlink="http://www.w3.org/1999/xlink">
    <g id="1" stroke="none" stroke-width="1" fill="none" fill-rule="evenodd" transform="translate(182, 137)">
        <path d="M139.330089,91.0015692 C150.717994,91.0004566 160.66465,95.4053564 167.853534,102.534353 C175.064156,109.684907 179.5,119.574442 179.5,130.5 C179.5,141.407624 175.078812,151.282624 167.930718,158.430718 C160.782624,165.578812 150.907624,170 140,170 L120,170 C108.816234,170 98.6912338,174.533117 91.3621754,181.862175 C84.0331169,189.191234 79.5,199.316234 79.5,210.5 L79.5,630.5 C79.5,641.683766 84.0331169,651.808766 91.3621754,659.137825 C98.6912338,666.466883 108.816234,671 120,671 L540,671 C551.183766,671 561.308766,666.466883 568.637825,659.137825 C575.966883,651.808766 580.5,641.683766 580.5,630.5 L580.5,557.5 L169.5,557.5 C158.592376,557.5 148.717376,553.078812 141.569282,545.930718 C134.421188,538.782624 130,528.907624 130,518 C130,507.092376 134.421188,497.217376 141.569282,490.069282 C148.717376,482.921188 158.592376,478.5 169.5,478.5 L580,478.5 C601.715349,478.5 621.397197,487.206468 635.745215,501.319106 C650.117549,515.455661 659.138027,535.016705 659.489299,556.681104 L659.5,558 L659.5,610.5 C659.5,649.021861 643.885931,683.896861 618.641396,709.141396 C593.396861,734.385931 558.521861,750 520,750 L140,750 C101.478139,750 66.6031387,734.385931 41.358604,709.141396 C16.1140694,683.896861 0.5,649.021861 0.5,610.5 L0.5,230.5 C0.5,192.098954 16.0162811,157.321929 41.1213669,132.096409 C66.2388512,106.858432 100.954608,91.1813764 139.330089,91.0015692 Z M319.5,0.5 C346.678333,0.5 371.31159,11.3967781 389.269173,29.0597657 C407.257198,46.7526966 418.546965,71.2347761 418.986619,98.3503677 L419,100 C419,108.1462 415.6981,115.5212 410.35965,120.85965 C405.0212,126.1981 397.6462,129.5 389.5,129.5 C381.3538,129.5 373.9788,126.1981 368.64035,120.85965 C363.3019,115.5212 360,108.1462 360,100 C360,88.8162338 355.466883,78.6912338 348.137825,71.3621754 C340.808766,64.0331169 330.683766,59.5 319.5,59.5 C308.437448,59.5 298.410841,63.9353912 291.101467,71.124855 C283.779655,78.3265516 279.1844,88.2917223 279.005375,99.3344763 L279,100 L279,151.000002 L298.490712,150.999914 C298.826554,151.006153 299.163295,151.004131 299.500984,151.002051 L441.5,151 L441.5,130.5 C441.5,119.592376 445.921188,109.717376 453.069282,102.569282 C460.217376,95.4211881 470.092376,91 481,91 L520.99287,90.9999492 L522.30705,91.0186903 C560.329082,91.6351596 594.653233,107.463504 619.458914,132.682911 C644.222602,157.859625 659.5,192.3957 659.5,230.5 L659.5,358 C659.5,368.907624 655.078812,378.782624 647.930718,385.930718 C640.782624,393.078812 630.907624,397.5 620,397.5 C609.092376,397.5 599.217376,393.078812 592.069282,385.930718 C584.921188,378.782624 580.5,368.907624 580.5,358 L580.5,210.5 C580.5,199.316234 575.966883,189.191234 568.637825,181.862175 C561.308766,174.533117 551.183766,170 540,170 L520.5,170 L520.5,190.5 C520.5,201.289382 516.174152,211.068412 509.162215,218.197299 C502.13841,225.338251 492.419438,229.820151 481.657423,229.994658 L481,230 L300,230 C299.667778,230 299.336514,229.9959 299.006256,229.987747 L279.008107,230.000066 C262.751209,229.736456 248.15315,223.150191 237.543575,212.628389 C226.899906,202.072776 220.270705,187.556557 220.008171,171.500295 L220.000001,97.5062566 C220.678012,70.5711322 232.05208,46.2915538 250.033401,28.7597658 C267.968087,11.2734476 292.475907,0.5 319.5,0.5 Z M489.5,318.5 C500.407624,318.5 510.282624,322.921188 517.430718,330.069282 C524.578812,337.217376 529,347.092376 529,358 C529,368.907624 524.578812,378.782624 517.430718,385.930718 C510.282624,393.078812 500.407624,397.5 489.5,397.5 L169.5,397.5 C158.592376,397.5 148.717376,393.078812 141.569282,385.930718 C134.421188,378.782624 130,368.907624 130,358 C130,347.092376 134.421188,337.217376 141.569282,330.069282 C148.717376,322.921188 158.592376,318.5 169.5,318.5 Z" id="crosspaste" stroke="#979797" fill="#FFFFFF"></path>
    </g>
</svg>